<svg width="327" height="662" viewBox="0 0 327 662" fill="none" xmlns="http://www.w3.org/2000/svg">
<path d="M10.128 7.52H13.908V14.604H22.084V7.52H25.864V26H22.084V18.02H13.908V26H10.128V7.52ZM35.3842 11.832C37.1949 11.832 38.6322 12.3453 39.6962 13.372C40.7789 14.38 41.3202 15.8453 41.3202 17.768V26H37.8482V24.656C37.3442 25.1787 36.7282 25.5893 36.0002 25.888C35.2909 26.1867 34.4976 26.336 33.6202 26.336C32.1456 26.336 30.9789 25.9533 30.1202 25.188C29.2616 24.404 28.8322 23.4053 28.8322 22.192C28.8322 20.9413 29.2989 19.9613 30.2322 19.252C31.1842 18.524 32.4629 18.16 34.0682 18.16H37.5402V17.544C37.5402 16.7787 37.3162 16.1813 36.8682 15.752C36.4389 15.3227 35.8042 15.108 34.9642 15.108C34.2549 15.108 33.6202 15.2667 33.0602 15.584C32.5002 15.8827 31.9122 16.3587 31.2962 17.012L29.3362 14.688C30.9416 12.784 32.9576 11.832 35.3842 11.832ZM34.6282 23.564C35.4496 23.564 36.1402 23.312 36.7002 22.808C37.2602 22.2853 37.5402 21.6227 37.5402 20.82V20.652H34.5722C33.9562 20.652 33.4802 20.7733 33.1442 21.016C32.8082 21.24 32.6402 21.5853 32.6402 22.052C32.6402 22.5187 32.8176 22.892 33.1722 23.172C33.5456 23.4333 34.0309 23.564 34.6282 23.564ZM56.634 12.14V26H52.854V21.128C52.0887 21.4267 51.09 21.576 49.858 21.576C48.0847 21.576 46.694 21.0533 45.686 20.008C44.678 18.944 44.174 17.46 44.174 15.556V12.14H47.926V15.276C47.926 17.236 48.8314 18.216 50.642 18.216C51.5007 18.216 52.238 18.0947 52.854 17.852V12.14H56.634ZM60.5459 12.14H64.2979V17.208H69.4219V12.14H73.1739V26H69.4219V20.428H64.2979V26H60.5459V12.14ZM89.7449 20.344H80.0289C80.2529 21.2213 80.7009 21.9027 81.3729 22.388C82.0636 22.8547 82.9129 23.088 83.9209 23.088C85.2836 23.088 86.5716 22.6213 87.7849 21.688L89.3529 24.264C87.7102 25.6453 85.8622 26.336 83.8089 26.336C82.3716 26.336 81.0742 26.0187 79.9169 25.384C78.7596 24.7493 77.8542 23.8813 77.2009 22.78C76.5476 21.66 76.2209 20.428 76.2209 19.084C76.2209 17.74 76.5382 16.5173 77.1729 15.416C77.8076 14.296 78.6756 13.4187 79.7769 12.784C80.8969 12.1493 82.1289 11.832 83.4729 11.832C84.7422 11.832 85.8716 12.1213 86.8609 12.7C87.8502 13.26 88.6156 14.0347 89.1569 15.024C89.7169 15.9947 89.9969 17.0773 89.9969 18.272C89.9969 18.944 89.9129 19.6347 89.7449 20.344ZM83.3329 14.884C82.5302 14.884 81.8302 15.136 81.2329 15.64C80.6356 16.144 80.2342 16.8253 80.0289 17.684H86.3289C86.3102 16.8253 86.0116 16.144 85.4329 15.64C84.8542 15.136 84.1542 14.884 83.3329 14.884ZM93.0303 11.832H94.2623L100.758 19.084L107.31 11.832H108.514V26H104.734V19.336L101.374 23.116H100.114L96.7823 19.364V26H93.0303V11.832Z" fill="#F5F5F5"/>
<path d="M15.088 53.192C15.7387 53.384 16.2453 53.7253 16.608 54.216C16.9707 54.696 17.152 55.2773 17.152 55.96C17.152 56.5467 17.0187 57.0693 16.752 57.528C16.4853 57.9867 16.096 58.3493 15.584 58.616C15.0827 58.872 14.4907 59 13.808 59H9.456V48.44H13.088C14.0053 48.44 14.736 48.6907 15.28 49.192C15.824 49.6933 16.096 50.3333 16.096 51.112C16.096 51.5493 16.0053 51.944 15.824 52.296C15.6533 52.648 15.408 52.9467 15.088 53.192ZM10.704 49.56V52.84H12.96C13.5573 52.84 14.016 52.6907 14.336 52.392C14.656 52.0933 14.816 51.6933 14.816 51.192C14.816 50.6907 14.656 50.296 14.336 50.008C14.0267 49.7093 13.568 49.56 12.96 49.56H10.704ZM13.68 57.88C14.3733 57.88 14.912 57.704 15.296 57.352C15.68 56.9893 15.872 56.5147 15.872 55.928C15.872 55.3413 15.68 54.872 15.296 54.52C14.912 54.1573 14.3733 53.976 13.68 53.976H10.704V57.88H13.68ZM24.1314 54.776C24.59 54.936 24.9474 55.176 25.2034 55.496C25.47 55.816 25.6034 56.2 25.6034 56.648C25.6034 57.3413 25.3527 57.9067 24.8514 58.344C24.35 58.7813 23.678 59 22.8354 59H19.2194V51.208H22.4354C23.2034 51.208 23.8114 51.3947 24.2594 51.768C24.718 52.1413 24.9474 52.6427 24.9474 53.272C24.9474 53.5813 24.8727 53.8693 24.7234 54.136C24.5847 54.392 24.3874 54.6053 24.1314 54.776ZM20.4514 54.392H22.4514C22.878 54.392 23.198 54.3013 23.4114 54.12C23.6247 53.928 23.7314 53.6667 23.7314 53.336C23.7314 52.6533 23.3047 52.312 22.4514 52.312H20.4514V54.392ZM22.7554 57.912C23.2674 57.912 23.662 57.7947 23.9394 57.56C24.2274 57.3253 24.3714 57.0213 24.3714 56.648C24.3714 56.2853 24.2274 56.0027 23.9394 55.8C23.662 55.5867 23.2674 55.48 22.7554 55.48H20.4514V57.912H22.7554ZM34.8025 55.48H28.6425C28.7172 56.248 29.0212 56.8667 29.5545 57.336C30.0878 57.8053 30.7385 58.04 31.5065 58.04C32.3918 58.04 33.1865 57.688 33.8905 56.984L34.6105 57.816C34.2052 58.2427 33.7358 58.5787 33.2025 58.824C32.6798 59.0587 32.1092 59.176 31.4905 59.176C30.7225 59.176 30.0238 59 29.3945 58.648C28.7652 58.2853 28.2692 57.7947 27.9065 57.176C27.5438 56.5573 27.3625 55.8693 27.3625 55.112C27.3625 54.3653 27.5385 53.6827 27.8905 53.064C28.2425 52.4347 28.7225 51.9387 29.3305 51.576C29.9385 51.2133 30.6105 51.032 31.3465 51.032C32.0078 51.032 32.6105 51.1813 33.1545 51.48C33.6985 51.7787 34.1252 52.1947 34.4345 52.728C34.7438 53.2613 34.8985 53.8693 34.8985 54.552C34.8985 54.8507 34.8665 55.16 34.8025 55.48ZM31.3145 52.152C30.6638 52.152 30.0985 52.36 29.6185 52.776C29.1385 53.1813 28.8292 53.72 28.6905 54.392H33.6345C33.6238 53.6987 33.3945 53.1547 32.9465 52.76C32.5092 52.3547 31.9652 52.152 31.3145 52.152ZM44.1408 57.912V61.256H42.9088V59H36.7808V61.256H35.5488V57.912H36.4288C36.7914 57.5387 37.0474 56.9893 37.1968 56.264C37.3461 55.528 37.4314 54.5733 37.4528 53.4L37.5008 51.208H42.8768V57.912H44.1408ZM38.6208 53.416C38.5994 54.504 38.5088 55.4373 38.3488 56.216C38.1888 56.984 37.9808 57.5493 37.7248 57.912H41.6448V52.312H38.6688L38.6208 53.416ZM52.5108 51.032V59H51.2788V53.496L46.5268 59.176H46.0788V51.208H47.3108V56.728L52.0628 51.032H52.5108ZM63.2238 59.176C62.4771 59.176 61.7891 58.9947 61.1598 58.632C60.5411 58.2693 60.0504 57.7787 59.6878 57.16C59.3251 56.5307 59.1438 55.8427 59.1438 55.096C59.1438 54.3493 59.3251 53.6667 59.6878 53.048C60.0504 52.4293 60.5411 51.9387 61.1598 51.576C61.7891 51.2133 62.4771 51.032 63.2238 51.032C63.9064 51.032 64.5251 51.1867 65.0798 51.496C65.6344 51.7947 66.0878 52.2053 66.4398 52.728L65.5598 53.432C64.9304 52.5893 64.1571 52.168 63.2398 52.168C62.7064 52.168 62.2211 52.3013 61.7838 52.568C61.3571 52.824 61.0211 53.176 60.7758 53.624C60.5304 54.072 60.4078 54.5627 60.4078 55.096C60.4078 55.64 60.5304 56.136 60.7758 56.584C61.0211 57.032 61.3571 57.3893 61.7838 57.656C62.2211 57.912 62.7064 58.04 63.2398 58.04C64.1571 58.04 64.9251 57.624 65.5438 56.792L66.4237 57.48C66.0718 58.0027 65.6184 58.4187 65.0638 58.728C64.5198 59.0267 63.9064 59.176 63.2238 59.176ZM73.4283 54.776C73.8869 54.936 74.2443 55.176 74.5003 55.496C74.7669 55.816 74.9003 56.2 74.9003 56.648C74.9003 57.3413 74.6496 57.9067 74.1483 58.344C73.6469 58.7813 72.9749 59 72.1323 59H68.5163V51.208H71.7323C72.5003 51.208 73.1083 51.3947 73.5563 51.768C74.0149 52.1413 74.2443 52.6427 74.2443 53.272C74.2443 53.5813 74.1696 53.8693 74.0203 54.136C73.8816 54.392 73.6843 54.6053 73.4283 54.776ZM69.7483 54.392H71.7483C72.1749 54.392 72.4949 54.3013 72.7083 54.12C72.9216 53.928 73.0283 53.6667 73.0283 53.336C73.0283 52.6533 72.6016 52.312 71.7483 52.312H69.7483V54.392ZM72.0523 57.912C72.5643 57.912 72.9589 57.7947 73.2363 57.56C73.5243 57.3253 73.6683 57.0213 73.6683 56.648C73.6683 56.2853 73.5243 56.0027 73.2363 55.8C72.9589 55.5867 72.5643 55.48 72.0523 55.48H69.7483V57.912H72.0523ZM80.7234 59.16C79.9767 59.16 79.294 58.9787 78.6754 58.616C78.0567 58.2533 77.566 57.7627 77.2034 57.144C76.8407 56.5147 76.6594 55.832 76.6594 55.096C76.6594 54.3493 76.8407 53.6667 77.2034 53.048C77.566 52.4187 78.0567 51.928 78.6754 51.576C79.3047 51.2133 79.9927 51.032 80.7394 51.032C81.486 51.032 82.1687 51.2133 82.7874 51.576C83.4167 51.9387 83.9127 52.4293 84.2754 53.048C84.638 53.6667 84.8194 54.3493 84.8194 55.096C84.8194 55.832 84.638 56.5147 84.2754 57.144C83.9127 57.7627 83.4167 58.2533 82.7874 58.616C82.158 58.9787 81.47 59.16 80.7234 59.16ZM80.7234 58.024C81.246 58.024 81.7207 57.896 82.1474 57.64C82.5847 57.384 82.926 57.0373 83.1714 56.6C83.4274 56.152 83.5554 55.656 83.5554 55.112C83.5554 54.5573 83.4327 54.056 83.1874 53.608C82.942 53.16 82.6007 52.808 82.1634 52.552C81.7367 52.296 81.262 52.168 80.7394 52.168C80.206 52.168 79.726 52.296 79.2994 52.552C78.8727 52.808 78.5367 53.16 78.2914 53.608C78.046 54.056 77.9234 54.5573 77.9234 55.112C77.9234 55.656 78.046 56.152 78.2914 56.6C78.5367 57.0373 78.8727 57.384 79.2994 57.64C79.726 57.896 80.2007 58.024 80.7234 58.024ZM93.417 51.032V59H92.185V53.496L87.433 59.176H86.985V51.208H88.217V56.728L92.969 51.032H93.417ZM90.377 49.832C89.6517 49.832 89.065 49.6027 88.617 49.144C88.1797 48.6747 87.961 48.0613 87.961 47.304V46.808H89.001V47.272C89.001 47.7947 89.1183 48.2 89.353 48.488C89.5983 48.7653 89.9397 48.904 90.377 48.904C90.825 48.904 91.1663 48.7653 91.401 48.488C91.6463 48.2 91.769 47.7947 91.769 47.272V46.808H92.809V47.304C92.809 48.0613 92.585 48.6747 92.137 49.144C91.6997 49.6027 91.113 49.832 90.377 49.832ZM100.61 51.208H101.842V54.312H105.666V51.208H106.898V59H105.666V55.4H101.842V59H100.61V51.208ZM113.098 59.16C112.352 59.16 111.669 58.9787 111.05 58.616C110.432 58.2533 109.941 57.7627 109.578 57.144C109.216 56.5147 109.034 55.832 109.034 55.096C109.034 54.3493 109.216 53.6667 109.578 53.048C109.941 52.4187 110.432 51.928 111.05 51.576C111.68 51.2133 112.368 51.032 113.114 51.032C113.861 51.032 114.544 51.2133 115.162 51.576C115.792 51.9387 116.288 52.4293 116.65 53.048C117.013 53.6667 117.194 54.3493 117.194 55.096C117.194 55.832 117.013 56.5147 116.65 57.144C116.288 57.7627 115.792 58.2533 115.162 58.616C114.533 58.9787 113.845 59.16 113.098 59.16ZM113.098 58.024C113.621 58.024 114.096 57.896 114.522 57.64C114.96 57.384 115.301 57.0373 115.546 56.6C115.802 56.152 115.93 55.656 115.93 55.112C115.93 54.5573 115.808 54.056 115.562 53.608C115.317 53.16 114.976 52.808 114.538 52.552C114.112 52.296 113.637 52.168 113.114 52.168C112.581 52.168 112.101 52.296 111.674 52.552C111.248 52.808 110.912 53.16 110.666 53.608C110.421 54.056 110.298 54.5573 110.298 55.112C110.298 55.656 110.421 56.152 110.666 56.6C110.912 57.0373 111.248 57.384 111.674 57.64C112.101 57.896 112.576 58.024 113.098 58.024ZM119.36 51.032H119.808L123.504 55.416L127.184 51.032H127.616V59H126.384V53.736L123.728 56.904H123.248L120.592 53.736V59H119.36V51.032ZM137.209 55.48H131.049C131.123 56.248 131.427 56.8667 131.961 57.336C132.494 57.8053 133.145 58.04 133.913 58.04C134.798 58.04 135.593 57.688 136.297 56.984L137.017 57.816C136.611 58.2427 136.142 58.5787 135.609 58.824C135.086 59.0587 134.515 59.176 133.897 59.176C133.129 59.176 132.43 59 131.801 58.648C131.171 58.2853 130.675 57.7947 130.313 57.176C129.95 56.5573 129.769 55.8693 129.769 55.112C129.769 54.3653 129.945 53.6827 130.297 53.064C130.649 52.4347 131.129 51.9387 131.737 51.576C132.345 51.2133 133.017 51.032 133.753 51.032C134.414 51.032 135.017 51.1813 135.561 51.48C136.105 51.7787 136.531 52.1947 136.841 52.728C137.15 53.2613 137.305 53.8693 137.305 54.552C137.305 54.8507 137.273 55.16 137.209 55.48ZM133.721 52.152C133.07 52.152 132.505 52.36 132.025 52.776C131.545 53.1813 131.235 53.72 131.097 54.392H136.041C136.03 53.6987 135.801 53.1547 135.353 52.76C134.915 52.3547 134.371 52.152 133.721 52.152ZM143.565 51.032C144.301 51.032 144.963 51.2133 145.549 51.576C146.136 51.928 146.595 52.4133 146.925 53.032C147.256 53.6507 147.421 54.3387 147.421 55.096C147.421 55.8533 147.251 56.5467 146.909 57.176C146.579 57.7947 146.12 58.2853 145.533 58.648C144.947 59 144.291 59.176 143.565 59.176C142.989 59.176 142.445 59.064 141.933 58.84C141.432 58.6053 141.021 58.2853 140.701 57.88V61.88H139.469V51.208H140.621V52.456C140.92 52.008 141.331 51.6613 141.853 51.416C142.387 51.16 142.957 51.032 143.565 51.032ZM143.389 58.04C143.912 58.04 144.381 57.9173 144.797 57.672C145.224 57.416 145.555 57.064 145.789 56.616C146.035 56.168 146.157 55.6667 146.157 55.112C146.157 54.5573 146.035 54.056 145.789 53.608C145.555 53.16 145.224 52.808 144.797 52.552C144.381 52.296 143.912 52.168 143.389 52.168C142.92 52.168 142.477 52.2747 142.061 52.488C141.656 52.7013 141.325 53.0267 141.069 53.464C140.813 53.9013 140.685 54.4453 140.685 55.096C140.685 55.7467 140.808 56.296 141.053 56.744C141.309 57.1813 141.64 57.5067 142.045 57.72C142.461 57.9333 142.909 58.04 143.389 58.04ZM155.647 52.312H153.023V51.208H159.487V52.312H156.863V59H155.647V52.312ZM168.053 55.48H161.893C161.967 56.248 162.271 56.8667 162.805 57.336C163.338 57.8053 163.989 58.04 164.757 58.04C165.642 58.04 166.437 57.688 167.141 56.984L167.861 57.816C167.455 58.2427 166.986 58.5787 166.453 58.824C165.93 59.0587 165.359 59.176 164.741 59.176C163.973 59.176 163.274 59 162.645 58.648C162.015 58.2853 161.519 57.7947 161.157 57.176C160.794 56.5573 160.613 55.8693 160.613 55.112C160.613 54.3653 160.789 53.6827 161.141 53.064C161.493 52.4347 161.973 51.9387 162.581 51.576C163.189 51.2133 163.861 51.032 164.597 51.032C165.258 51.032 165.861 51.1813 166.405 51.48C166.949 51.7787 167.375 52.1947 167.685 52.728C167.994 53.2613 168.149 53.8693 168.149 54.552C168.149 54.8507 168.117 55.16 168.053 55.48ZM164.565 52.152C163.914 52.152 163.349 52.36 162.869 52.776C162.389 53.1813 162.079 53.72 161.941 54.392H166.885C166.874 53.6987 166.645 53.1547 166.197 52.76C165.759 52.3547 165.215 52.152 164.565 52.152ZM176.201 51.208V59H174.969V52.312H172.073L172.041 53.272C171.998 54.6373 171.897 55.736 171.737 56.568C171.577 57.4 171.321 58.024 170.969 58.44C170.617 58.856 170.137 59.064 169.529 59.064C169.38 59.064 169.241 59.0427 169.113 59V57.96C169.241 57.9813 169.348 57.992 169.433 57.992C169.934 57.992 170.292 57.6027 170.505 56.824C170.718 56.0347 170.841 54.84 170.873 53.24L170.921 51.208H176.201ZM185.803 55.48H179.643C179.717 56.248 180.021 56.8667 180.555 57.336C181.088 57.8053 181.739 58.04 182.507 58.04C183.392 58.04 184.187 57.688 184.891 56.984L185.611 57.816C185.205 58.2427 184.736 58.5787 184.203 58.824C183.68 59.0587 183.109 59.176 182.491 59.176C181.723 59.176 181.024 59 180.395 58.648C179.765 58.2853 179.269 57.7947 178.907 57.176C178.544 56.5573 178.363 55.8693 178.363 55.112C178.363 54.3653 178.539 53.6827 178.891 53.064C179.243 52.4347 179.723 51.9387 180.331 51.576C180.939 51.2133 181.611 51.032 182.347 51.032C183.008 51.032 183.611 51.1813 184.155 51.48C184.699 51.7787 185.125 52.1947 185.435 52.728C185.744 53.2613 185.899 53.8693 185.899 54.552C185.899 54.8507 185.867 55.16 185.803 55.48ZM182.315 52.152C181.664 52.152 181.099 52.36 180.619 52.776C180.139 53.1813 179.829 53.72 179.691 54.392H184.635C184.624 53.6987 184.395 53.1547 183.947 52.76C183.509 52.3547 182.965 52.152 182.315 52.152ZM197.535 55.128C197.535 55.928 197.343 56.632 196.959 57.24C196.586 57.8373 196.063 58.3013 195.391 58.632C194.73 58.9627 193.978 59.144 193.135 59.176V61.88H191.903V59.176C191.05 59.144 190.287 58.9627 189.615 58.632C188.954 58.2907 188.436 57.8213 188.063 57.224C187.69 56.616 187.503 55.912 187.503 55.112C187.503 54.312 187.69 53.6133 188.063 53.016C188.447 52.4187 188.97 51.9547 189.631 51.624C190.303 51.2827 191.06 51.096 191.903 51.064V47H193.135V51.064C193.988 51.096 194.746 51.2827 195.407 51.624C196.079 51.9547 196.602 52.424 196.975 53.032C197.348 53.6293 197.535 54.328 197.535 55.128ZM188.767 55.128C188.767 56.024 189.05 56.7333 189.615 57.256C190.18 57.768 190.948 58.0453 191.919 58.088V52.152C190.948 52.1947 190.18 52.4773 189.615 53C189.05 53.5227 188.767 54.232 188.767 55.128ZM193.119 58.088C194.09 58.0453 194.858 57.7627 195.423 57.24C195.988 56.7173 196.271 56.008 196.271 55.112C196.271 54.216 195.988 53.512 195.423 53C194.858 52.4773 194.09 52.1947 193.119 52.152V58.088ZM203.192 59.16C202.445 59.16 201.763 58.9787 201.144 58.616C200.525 58.2533 200.035 57.7627 199.672 57.144C199.309 56.5147 199.128 55.832 199.128 55.096C199.128 54.3493 199.309 53.6667 199.672 53.048C200.035 52.4187 200.525 51.928 201.144 51.576C201.773 51.2133 202.461 51.032 203.208 51.032C203.955 51.032 204.637 51.2133 205.256 51.576C205.885 51.9387 206.381 52.4293 206.744 53.048C207.107 53.6667 207.288 54.3493 207.288 55.096C207.288 55.832 207.107 56.5147 206.744 57.144C206.381 57.7627 205.885 58.2533 205.256 58.616C204.627 58.9787 203.939 59.16 203.192 59.16ZM203.192 58.024C203.715 58.024 204.189 57.896 204.616 57.64C205.053 57.384 205.395 57.0373 205.64 56.6C205.896 56.152 206.024 55.656 206.024 55.112C206.024 54.5573 205.901 54.056 205.656 53.608C205.411 53.16 205.069 52.808 204.632 52.552C204.205 52.296 203.731 52.168 203.208 52.168C202.675 52.168 202.195 52.296 201.768 52.552C201.341 52.808 201.005 53.16 200.76 53.608C200.515 54.056 200.392 54.5573 200.392 55.112C200.392 55.656 200.515 56.152 200.76 56.6C201.005 57.0373 201.341 57.384 201.768 57.64C202.195 57.896 202.669 58.024 203.192 58.024ZM209.454 51.208H210.686V54.312H214.51V51.208H215.742V59H214.51V55.4H210.686V59H209.454V51.208ZM221.238 51.032C222.155 51.032 222.891 51.304 223.446 51.848C224.001 52.392 224.278 53.176 224.278 54.2V59H223.126V57.992C222.838 58.376 222.47 58.6693 222.022 58.872C221.574 59.0747 221.067 59.176 220.502 59.176C219.702 59.176 219.046 58.9787 218.534 58.584C218.033 58.1893 217.782 57.656 217.782 56.984C217.782 56.3227 218.038 55.7947 218.55 55.4C219.062 55.0053 219.739 54.808 220.582 54.808H223.046V54.136C223.046 53.496 222.875 53.0107 222.534 52.68C222.203 52.3387 221.745 52.168 221.158 52.168C220.689 52.168 220.273 52.2747 219.91 52.488C219.547 52.6907 219.206 53 218.886 53.416L218.07 52.744C218.422 52.168 218.875 51.7413 219.43 51.464C219.985 51.176 220.587 51.032 221.238 51.032ZM220.662 58.152C221.089 58.152 221.483 58.0613 221.846 57.88C222.209 57.688 222.497 57.4267 222.71 57.096C222.934 56.7653 223.046 56.4027 223.046 56.008V55.816H220.726C220.182 55.816 219.766 55.912 219.478 56.104C219.19 56.2853 219.046 56.5573 219.046 56.92C219.046 57.3147 219.201 57.6187 219.51 57.832C219.819 58.0453 220.203 58.152 220.662 58.152ZM227.771 59.176C227.494 59.176 227.254 59.08 227.051 58.888C226.859 58.696 226.763 58.456 226.763 58.168C226.763 57.88 226.859 57.64 227.051 57.448C227.254 57.256 227.494 57.16 227.771 57.16C228.049 57.16 228.283 57.256 228.475 57.448C228.678 57.64 228.779 57.88 228.779 58.168C228.779 58.456 228.678 58.696 228.475 58.888C228.283 59.08 228.049 59.176 227.771 59.176ZM245.668 48.264V59H244.42V51.432L241.044 56.008H240.596L237.204 51.4V59H235.956V48.264H236.404L240.804 54.36L245.236 48.264H245.668ZM248.407 51.208H249.639V53.896H251.495C252.37 53.896 253.074 54.1307 253.607 54.6C254.14 55.0587 254.407 55.672 254.407 56.44C254.407 57.2187 254.14 57.8427 253.607 58.312C253.084 58.7707 252.38 59 251.495 59H248.407V51.208ZM255.543 51.208H256.775V59H255.543V51.208ZM251.431 57.912C251.986 57.912 252.407 57.7893 252.695 57.544C252.994 57.288 253.143 56.9253 253.143 56.456C253.143 55.9867 252.994 55.624 252.695 55.368C252.396 55.112 251.97 54.984 251.415 54.984H249.639V57.912H251.431ZM9.36 75.208H15.584V83H14.336V76.312H10.592V83H9.36V75.208ZM22.3779 75.032C23.1139 75.032 23.7752 75.2133 24.3619 75.576C24.9485 75.928 25.4072 76.4133 25.7379 77.032C26.0685 77.6507 26.2339 78.3387 26.2339 79.096C26.2339 79.8533 26.0632 80.5467 25.7219 81.176C25.3912 81.7947 24.9325 82.2853 24.3459 82.648C23.7592 83 23.1032 83.176 22.3779 83.176C21.8019 83.176 21.2579 83.064 20.7459 82.84C20.2445 82.6053 19.8339 82.2853 19.5139 81.88V85.88H18.2819V75.208H19.4339V76.456C19.7325 76.008 20.1432 75.6613 20.6659 75.416C21.1992 75.16 21.7699 75.032 22.3779 75.032ZM22.2019 82.04C22.7245 82.04 23.1939 81.9173 23.6099 81.672C24.0365 81.416 24.3672 81.064 24.6019 80.616C24.8472 80.168 24.9699 79.6667 24.9699 79.112C24.9699 78.5573 24.8472 78.056 24.6019 77.608C24.3672 77.16 24.0365 76.808 23.6099 76.552C23.1939 76.296 22.7245 76.168 22.2019 76.168C21.7325 76.168 21.2899 76.2747 20.8739 76.488C20.4685 76.7013 20.1379 77.0267 19.8819 77.464C19.6259 77.9013 19.4979 78.4453 19.4979 79.096C19.4979 79.7467 19.6205 80.296 19.8659 80.744C20.1219 81.1813 20.4525 81.5067 20.8579 81.72C21.2739 81.9333 21.7219 82.04 22.2019 82.04ZM34.8233 75.032V83H33.5913V77.496L28.8393 83.176H28.3913V75.208H29.6233V80.728L34.3753 75.032H34.8233ZM37.5319 75.208H38.7639V81.912H42.0279V75.208H43.2599V81.912H46.5399V75.208H47.7719V83H37.5319V75.208ZM56.3574 75.208V83H55.1254V76.312H52.2294L52.1974 77.272C52.1547 78.6373 52.0534 79.736 51.8934 80.568C51.7334 81.4 51.4774 82.024 51.1254 82.44C50.7734 82.856 50.2934 83.064 49.6854 83.064C49.536 83.064 49.3974 83.0427 49.2694 83V81.96C49.3974 81.9813 49.504 81.992 49.5894 81.992C50.0907 81.992 50.448 81.6027 50.6614 80.824C50.8747 80.0347 50.9974 78.84 51.0294 77.24L51.0774 75.208H56.3574ZM65.9588 79.48H59.7988C59.8734 80.248 60.1774 80.8667 60.7108 81.336C61.2441 81.8053 61.8948 82.04 62.6628 82.04C63.5481 82.04 64.3428 81.688 65.0468 80.984L65.7668 81.816C65.3614 82.2427 64.8921 82.5787 64.3588 82.824C63.8361 83.0587 63.2654 83.176 62.6468 83.176C61.8788 83.176 61.1801 83 60.5508 82.648C59.9214 82.2853 59.4254 81.7947 59.0628 81.176C58.7001 80.5573 58.5188 79.8693 58.5188 79.112C58.5188 78.3653 58.6948 77.6827 59.0468 77.064C59.3988 76.4347 59.8788 75.9387 60.4868 75.576C61.0948 75.2133 61.7668 75.032 62.5028 75.032C63.1641 75.032 63.7668 75.1813 64.3108 75.48C64.8548 75.7787 65.2814 76.1947 65.5908 76.728C65.9001 77.2613 66.0548 77.8693 66.0548 78.552C66.0548 78.8507 66.0228 79.16 65.9588 79.48ZM62.4708 76.152C61.8201 76.152 61.2548 76.36 60.7748 76.776C60.2948 77.1813 59.9854 77.72 59.8468 78.392H64.7908C64.7801 77.6987 64.5508 77.1547 64.1028 76.76C63.6654 76.3547 63.1214 76.152 62.4708 76.152ZM68.2194 75.032H68.6674L72.3634 79.416L76.0434 75.032H76.4754V83H75.2434V77.736L72.5874 80.904H72.1074L69.4514 77.736V83H68.2194V75.032ZM83.6725 75.208H84.9045V83H83.6725V75.208ZM90.2325 83H88.6805L85.0645 78.776L88.3445 75.208H89.8805L86.5685 78.744L90.2325 83ZM95.1765 83.16C94.4298 83.16 93.7472 82.9787 93.1285 82.616C92.5098 82.2533 92.0192 81.7627 91.6565 81.144C91.2938 80.5147 91.1125 79.832 91.1125 79.096C91.1125 78.3493 91.2938 77.6667 91.6565 77.048C92.0192 76.4187 92.5098 75.928 93.1285 75.576C93.7578 75.2133 94.4458 75.032 95.1925 75.032C95.9392 75.032 96.6218 75.2133 97.2405 75.576C97.8698 75.9387 98.3658 76.4293 98.7285 77.048C99.0912 77.6667 99.2725 78.3493 99.2725 79.096C99.2725 79.832 99.0912 80.5147 98.7285 81.144C98.3658 81.7627 97.8698 82.2533 97.2405 82.616C96.6112 82.9787 95.9232 83.16 95.1765 83.16ZM95.1765 82.024C95.6992 82.024 96.1738 81.896 96.6005 81.64C97.0378 81.384 97.3792 81.0373 97.6245 80.6C97.8805 80.152 98.0085 79.656 98.0085 79.112C98.0085 78.5573 97.8858 78.056 97.6405 77.608C97.3952 77.16 97.0538 76.808 96.6165 76.552C96.1898 76.296 95.7152 76.168 95.1925 76.168C94.6592 76.168 94.1792 76.296 93.7525 76.552C93.3258 76.808 92.9898 77.16 92.7445 77.608C92.4992 78.056 92.3765 78.5573 92.3765 79.112C92.3765 79.656 92.4992 80.152 92.7445 80.6C92.9898 81.0373 93.3258 81.384 93.7525 81.64C94.1792 81.896 94.6538 82.024 95.1765 82.024ZM108.516 81.912V85.256H107.284V83H101.156V85.256H99.9238V81.912H100.804C101.166 81.5387 101.422 80.9893 101.572 80.264C101.721 79.528 101.806 78.5733 101.828 77.4L101.876 75.208H107.252V81.912H108.516ZM102.996 77.416C102.974 78.504 102.884 79.4373 102.724 80.216C102.564 80.984 102.356 81.5493 102.1 81.912H106.02V76.312H103.044L102.996 77.416ZM114.938 75.208H121.162V83H119.914V76.312H116.17V83H114.938V75.208ZM127.364 83.16C126.617 83.16 125.935 82.9787 125.316 82.616C124.697 82.2533 124.207 81.7627 123.844 81.144C123.481 80.5147 123.3 79.832 123.3 79.096C123.3 78.3493 123.481 77.6667 123.844 77.048C124.207 76.4187 124.697 75.928 125.316 75.576C125.945 75.2133 126.633 75.032 127.38 75.032C128.127 75.032 128.809 75.2133 129.428 75.576C130.057 75.9387 130.553 76.4293 130.916 77.048C131.279 77.6667 131.46 78.3493 131.46 79.096C131.46 79.832 131.279 80.5147 130.916 81.144C130.553 81.7627 130.057 82.2533 129.428 82.616C128.799 82.9787 128.111 83.16 127.364 83.16ZM127.364 82.024C127.887 82.024 128.361 81.896 128.788 81.64C129.225 81.384 129.567 81.0373 129.812 80.6C130.068 80.152 130.196 79.656 130.196 79.112C130.196 78.5573 130.073 78.056 129.828 77.608C129.583 77.16 129.241 76.808 128.804 76.552C128.377 76.296 127.903 76.168 127.38 76.168C126.847 76.168 126.367 76.296 125.94 76.552C125.513 76.808 125.177 77.16 124.932 77.608C124.687 78.056 124.564 78.5573 124.564 79.112C124.564 79.656 124.687 80.152 124.932 80.6C125.177 81.0373 125.513 81.384 125.94 81.64C126.367 81.896 126.841 82.024 127.364 82.024ZM140.703 81.912V85.256H139.471V83H133.343V85.256H132.111V81.912H132.991C133.354 81.5387 133.61 80.9893 133.759 80.264C133.909 79.528 133.994 78.5733 134.015 77.4L134.063 75.208H139.439V81.912H140.703ZM135.183 77.416C135.162 78.504 135.071 79.4373 134.911 80.216C134.751 80.984 134.543 81.5493 134.287 81.912H138.207V76.312H135.231L135.183 77.416ZM143.913 76.312H141.289V75.208H147.753V76.312H145.129V83H143.913V76.312ZM154.366 78.776C154.824 78.936 155.182 79.176 155.438 79.496C155.704 79.816 155.838 80.2 155.838 80.648C155.838 81.3413 155.587 81.9067 155.086 82.344C154.584 82.7813 153.912 83 153.07 83H149.454V75.208H152.67C153.438 75.208 154.046 75.3947 154.494 75.768C154.952 76.1413 155.182 76.6427 155.182 77.272C155.182 77.5813 155.107 77.8693 154.958 78.136C154.819 78.392 154.622 78.6053 154.366 78.776ZM150.686 78.392H152.686C153.112 78.392 153.432 78.3013 153.646 78.12C153.859 77.928 153.966 77.6667 153.966 77.336C153.966 76.6533 153.539 76.312 152.686 76.312H150.686V78.392ZM152.99 81.912C153.502 81.912 153.896 81.7947 154.174 81.56C154.462 81.3253 154.606 81.0213 154.606 80.648C154.606 80.2853 154.462 80.0027 154.174 79.8C153.896 79.5867 153.502 79.48 152.99 79.48H150.686V81.912H152.99ZM165.037 79.48H158.877C158.952 80.248 159.256 80.8667 159.789 81.336C160.322 81.8053 160.973 82.04 161.741 82.04C162.626 82.04 163.421 81.688 164.125 80.984L164.845 81.816C164.44 82.2427 163.97 82.5787 163.437 82.824C162.914 83.0587 162.344 83.176 161.725 83.176C160.957 83.176 160.258 83 159.629 82.648C159 82.2853 158.504 81.7947 158.141 81.176C157.778 80.5573 157.597 79.8693 157.597 79.112C157.597 78.3653 157.773 77.6827 158.125 77.064C158.477 76.4347 158.957 75.9387 159.565 75.576C160.173 75.2133 160.845 75.032 161.581 75.032C162.242 75.032 162.845 75.1813 163.389 75.48C163.933 75.7787 164.36 76.1947 164.669 76.728C164.978 77.2613 165.133 77.8693 165.133 78.552C165.133 78.8507 165.101 79.16 165.037 79.48ZM161.549 76.152C160.898 76.152 160.333 76.36 159.853 76.776C159.373 77.1813 159.064 77.72 158.925 78.392H163.869C163.858 77.6987 163.629 77.1547 163.181 76.76C162.744 76.3547 162.2 76.152 161.549 76.152ZM171.394 75.032C172.13 75.032 172.791 75.2133 173.378 75.576C173.964 75.928 174.423 76.4133 174.753 77.032C175.084 77.6507 175.25 78.3387 175.25 79.096C175.25 79.8533 175.079 80.5467 174.738 81.176C174.407 81.7947 173.948 82.2853 173.362 82.648C172.775 83 172.119 83.176 171.394 83.176C170.818 83.176 170.274 83.064 169.762 82.84C169.26 82.6053 168.85 82.2853 168.53 81.88V85.88H167.298V75.208H168.45V76.456C168.748 76.008 169.159 75.6613 169.682 75.416C170.215 75.16 170.786 75.032 171.394 75.032ZM171.218 82.04C171.74 82.04 172.21 81.9173 172.626 81.672C173.052 81.416 173.383 81.064 173.618 80.616C173.863 80.168 173.986 79.6667 173.986 79.112C173.986 78.5573 173.863 78.056 173.618 77.608C173.383 77.16 173.052 76.808 172.626 76.552C172.21 76.296 171.74 76.168 171.218 76.168C170.748 76.168 170.306 76.2747 169.89 76.488C169.484 76.7013 169.154 77.0267 168.898 77.464C168.642 77.9013 168.514 78.4453 168.514 79.096C168.514 79.7467 168.636 80.296 168.882 80.744C169.138 81.1813 169.468 81.5067 169.874 81.72C170.29 81.9333 170.738 82.04 171.218 82.04ZM177.973 75.208L181.189 78.776L177.637 83H176.133L179.701 78.776L176.437 75.208H177.973ZM181.349 75.208H182.581V83H181.349V75.208ZM187.829 83H186.293L182.741 78.776L185.957 75.208H187.477L184.245 78.744L187.829 83ZM196.844 81.912V85.256H195.612V83H189.484V85.256H188.252V81.912H189.132C189.495 81.5387 189.751 80.9893 189.9 80.264C190.049 79.528 190.135 78.5733 190.156 77.4L190.204 75.208H195.58V81.912H196.844ZM191.324 77.416C191.303 78.504 191.212 79.4373 191.052 80.216C190.892 80.984 190.684 81.5493 190.428 81.912H194.348V76.312H191.372L191.324 77.416ZM205.506 79.48H199.346C199.42 80.248 199.724 80.8667 200.258 81.336C200.791 81.8053 201.442 82.04 202.21 82.04C203.095 82.04 203.89 81.688 204.594 80.984L205.314 81.816C204.908 82.2427 204.439 82.5787 203.906 82.824C203.383 83.0587 202.812 83.176 202.194 83.176C201.426 83.176 200.727 83 200.098 82.648C199.468 82.2853 198.972 81.7947 198.61 81.176C198.247 80.5573 198.066 79.8693 198.066 79.112C198.066 78.3653 198.242 77.6827 198.594 77.064C198.946 76.4347 199.426 75.9387 200.034 75.576C200.642 75.2133 201.314 75.032 202.05 75.032C202.711 75.032 203.314 75.1813 203.858 75.48C204.402 75.7787 204.828 76.1947 205.138 76.728C205.447 77.2613 205.602 77.8693 205.602 78.552C205.602 78.8507 205.57 79.16 205.506 79.48ZM202.018 76.152C201.367 76.152 200.802 76.36 200.322 76.776C199.842 77.1813 199.532 77.72 199.394 78.392H204.338C204.327 77.6987 204.098 77.1547 203.65 76.76C203.212 76.3547 202.668 76.152 202.018 76.152ZM207.766 75.208H208.998V78.312H212.822V75.208H214.054V83H212.822V79.4H208.998V83H207.766V75.208ZM223.183 75.032V83H221.951V77.496L217.199 83.176H216.751V75.208H217.983V80.728L222.735 75.032H223.183ZM231.571 75.208V83H230.339V80.152H228.867L226.723 83H225.283L227.555 79.992C226.979 79.8213 226.526 79.5387 226.195 79.144C225.875 78.7387 225.715 78.2587 225.715 77.704C225.715 76.9467 225.966 76.344 226.467 75.896C226.969 75.4373 227.635 75.208 228.467 75.208H231.571ZM230.339 76.312H228.547C228.057 76.312 227.673 76.4347 227.395 76.68C227.118 76.9253 226.979 77.2613 226.979 77.688C226.979 78.104 227.118 78.44 227.395 78.696C227.683 78.9413 228.073 79.064 228.563 79.064H230.339V76.312Z" fill="#999999"/>
<rect y="114" width="327" height="56" rx="16" fill="#313131"/>
<path d="M25.5022 134.257C25.1985 133.498 24.4631 133 23.6453 133H20.8945C19.8481 133 18.9998 133.848 18.9998 134.895C18.9998 143.789 26.2105 151 35.1052 151C36.1517 151 36.9998 150.152 36.9998 149.105L37.0002 146.354C37.0002 145.536 36.5024 144.801 35.7431 144.497L33.1067 143.443C32.4246 143.17 31.648 143.293 31.0837 143.763L30.4033 144.331C29.6086 144.993 28.4394 144.94 27.708 144.209L25.792 142.291C25.0605 141.56 25.0065 140.391 25.6687 139.597L26.2361 138.916C26.7064 138.352 26.8302 137.575 26.5574 136.893L25.5022 134.257Z" stroke="#999999" stroke-width="1.5" stroke-linecap="round" stroke-linejoin="round"/>
<path d="M49.456 136.44H50.704V140.792H56.624V136.44H57.872V147H56.624V141.912H50.704V147H49.456V136.44ZM64.114 147.16C63.3673 147.16 62.6847 146.979 62.066 146.616C61.4473 146.253 60.9567 145.763 60.594 145.144C60.2313 144.515 60.05 143.832 60.05 143.096C60.05 142.349 60.2313 141.667 60.594 141.048C60.9567 140.419 61.4473 139.928 62.066 139.576C62.6953 139.213 63.3833 139.032 64.13 139.032C64.8767 139.032 65.5593 139.213 66.178 139.576C66.8073 139.939 67.3033 140.429 67.666 141.048C68.0287 141.667 68.21 142.349 68.21 143.096C68.21 143.832 68.0287 144.515 67.666 145.144C67.3033 145.763 66.8073 146.253 66.178 146.616C65.5487 146.979 64.8607 147.16 64.114 147.16ZM64.114 146.024C64.6367 146.024 65.1113 145.896 65.538 145.64C65.9753 145.384 66.3167 145.037 66.562 144.6C66.818 144.152 66.946 143.656 66.946 143.112C66.946 142.557 66.8233 142.056 66.578 141.608C66.3327 141.16 65.9913 140.808 65.554 140.552C65.1273 140.296 64.6527 140.168 64.13 140.168C63.5967 140.168 63.1167 140.296 62.69 140.552C62.2633 140.808 61.9273 141.16 61.682 141.608C61.4367 142.056 61.314 142.557 61.314 143.112C61.314 143.656 61.4367 144.152 61.682 144.6C61.9273 145.037 62.2633 145.384 62.69 145.64C63.1167 145.896 63.5913 146.024 64.114 146.024ZM70.3756 139.032H70.8236L74.5196 143.416L78.1996 139.032H78.6316V147H77.3996V141.736L74.7436 144.904H74.2636L71.6076 141.736V147H70.3756V139.032ZM88.2244 143.48H82.0644C82.139 144.248 82.443 144.867 82.9764 145.336C83.5097 145.805 84.1604 146.04 84.9284 146.04C85.8137 146.04 86.6084 145.688 87.3124 144.984L88.0324 145.816C87.627 146.243 87.1577 146.579 86.6244 146.824C86.1017 147.059 85.531 147.176 84.9124 147.176C84.1444 147.176 83.4457 147 82.8164 146.648C82.187 146.285 81.691 145.795 81.3284 145.176C80.9657 144.557 80.7844 143.869 80.7844 143.112C80.7844 142.365 80.9604 141.683 81.3124 141.064C81.6644 140.435 82.1444 139.939 82.7524 139.576C83.3604 139.213 84.0324 139.032 84.7684 139.032C85.4297 139.032 86.0324 139.181 86.5764 139.48C87.1204 139.779 87.547 140.195 87.8564 140.728C88.1657 141.261 88.3204 141.869 88.3204 142.552C88.3204 142.851 88.2884 143.16 88.2244 143.48ZM84.7364 140.152C84.0857 140.152 83.5204 140.36 83.0404 140.776C82.5604 141.181 82.251 141.72 82.1124 142.392H87.0564C87.0457 141.699 86.8164 141.155 86.3684 140.76C85.931 140.355 85.387 140.152 84.7364 140.152ZM94.581 139.032C95.317 139.032 95.9783 139.213 96.565 139.576C97.1517 139.928 97.6103 140.413 97.941 141.032C98.2717 141.651 98.437 142.339 98.437 143.096C98.437 143.853 98.2663 144.547 97.925 145.176C97.5943 145.795 97.1357 146.285 96.549 146.648C95.9623 147 95.3063 147.176 94.581 147.176C94.005 147.176 93.461 147.064 92.949 146.84C92.4477 146.605 92.037 146.285 91.717 145.88V149.88H90.485V139.208H91.637V140.456C91.9357 140.008 92.3463 139.661 92.869 139.416C93.4023 139.16 93.973 139.032 94.581 139.032ZM94.405 146.04C94.9277 146.04 95.397 145.917 95.813 145.672C96.2397 145.416 96.5703 145.064 96.805 144.616C97.0503 144.168 97.173 143.667 97.173 143.112C97.173 142.557 97.0503 142.056 96.805 141.608C96.5703 141.16 96.2397 140.808 95.813 140.552C95.397 140.296 94.9277 140.168 94.405 140.168C93.9357 140.168 93.493 140.275 93.077 140.488C92.6717 140.701 92.341 141.027 92.085 141.464C91.829 141.901 91.701 142.445 91.701 143.096C91.701 143.747 91.8237 144.296 92.069 144.744C92.325 145.181 92.6557 145.507 93.061 145.72C93.477 145.933 93.925 146.04 94.405 146.04ZM106.663 140.312H104.039V139.208H110.503V140.312H107.879V147H106.663V140.312ZM119.068 143.48H112.908C112.983 144.248 113.287 144.867 113.82 145.336C114.353 145.805 115.004 146.04 115.772 146.04C116.657 146.04 117.452 145.688 118.156 144.984L118.876 145.816C118.471 146.243 118.001 146.579 117.468 146.824C116.945 147.059 116.375 147.176 115.756 147.176C114.988 147.176 114.289 147 113.66 146.648C113.031 146.285 112.535 145.795 112.172 145.176C111.809 144.557 111.628 143.869 111.628 143.112C111.628 142.365 111.804 141.683 112.156 141.064C112.508 140.435 112.988 139.939 113.596 139.576C114.204 139.213 114.876 139.032 115.612 139.032C116.273 139.032 116.876 139.181 117.42 139.48C117.964 139.779 118.391 140.195 118.7 140.728C119.009 141.261 119.164 141.869 119.164 142.552C119.164 142.851 119.132 143.16 119.068 143.48ZM115.58 140.152C114.929 140.152 114.364 140.36 113.884 140.776C113.404 141.181 113.095 141.72 112.956 142.392H117.9C117.889 141.699 117.66 141.155 117.212 140.76C116.775 140.355 116.231 140.152 115.58 140.152ZM127.217 139.208V147H125.985V140.312H123.089L123.057 141.272C123.014 142.637 122.913 143.736 122.753 144.568C122.593 145.4 122.337 146.024 121.985 146.44C121.633 146.856 121.153 147.064 120.545 147.064C120.395 147.064 120.257 147.043 120.129 147V145.96C120.257 145.981 120.363 145.992 120.449 145.992C120.95 145.992 121.307 145.603 121.521 144.824C121.734 144.035 121.857 142.84 121.889 141.24L121.937 139.208H127.217ZM136.818 143.48H130.658C130.733 144.248 131.037 144.867 131.57 145.336C132.103 145.805 132.754 146.04 133.522 146.04C134.407 146.04 135.202 145.688 135.906 144.984L136.626 145.816C136.221 146.243 135.751 146.579 135.218 146.824C134.695 147.059 134.125 147.176 133.506 147.176C132.738 147.176 132.039 147 131.41 146.648C130.781 146.285 130.285 145.795 129.922 145.176C129.559 144.557 129.378 143.869 129.378 143.112C129.378 142.365 129.554 141.683 129.906 141.064C130.258 140.435 130.738 139.939 131.346 139.576C131.954 139.213 132.626 139.032 133.362 139.032C134.023 139.032 134.626 139.181 135.17 139.48C135.714 139.779 136.141 140.195 136.45 140.728C136.759 141.261 136.914 141.869 136.914 142.552C136.914 142.851 136.882 143.16 136.818 143.48ZM133.33 140.152C132.679 140.152 132.114 140.36 131.634 140.776C131.154 141.181 130.845 141.72 130.706 142.392H135.65C135.639 141.699 135.41 141.155 134.962 140.76C134.525 140.355 133.981 140.152 133.33 140.152ZM148.551 143.128C148.551 143.928 148.359 144.632 147.975 145.24C147.601 145.837 147.079 146.301 146.407 146.632C145.745 146.963 144.993 147.144 144.151 147.176V149.88H142.919V147.176C142.065 147.144 141.303 146.963 140.631 146.632C139.969 146.291 139.452 145.821 139.079 145.224C138.705 144.616 138.519 143.912 138.519 143.112C138.519 142.312 138.705 141.613 139.079 141.016C139.463 140.419 139.985 139.955 140.647 139.624C141.319 139.283 142.076 139.096 142.919 139.064V135H144.151V139.064C145.004 139.096 145.761 139.283 146.423 139.624C147.095 139.955 147.617 140.424 147.991 141.032C148.364 141.629 148.551 142.328 148.551 143.128ZM139.783 143.128C139.783 144.024 140.065 144.733 140.631 145.256C141.196 145.768 141.964 146.045 142.935 146.088V140.152C141.964 140.195 141.196 140.477 140.631 141C140.065 141.523 139.783 142.232 139.783 143.128ZM144.135 146.088C145.105 146.045 145.873 145.763 146.439 145.24C147.004 144.717 147.287 144.008 147.287 143.112C147.287 142.216 147.004 141.512 146.439 141C145.873 140.477 145.105 140.195 144.135 140.152V146.088ZM154.208 147.16C153.461 147.16 152.778 146.979 152.16 146.616C151.541 146.253 151.05 145.763 150.688 145.144C150.325 144.515 150.144 143.832 150.144 143.096C150.144 142.349 150.325 141.667 150.688 141.048C151.05 140.419 151.541 139.928 152.16 139.576C152.789 139.213 153.477 139.032 154.224 139.032C154.97 139.032 155.653 139.213 156.272 139.576C156.901 139.939 157.397 140.429 157.76 141.048C158.122 141.667 158.304 142.349 158.304 143.096C158.304 143.832 158.122 144.515 157.76 145.144C157.397 145.763 156.901 146.253 156.272 146.616C155.642 146.979 154.954 147.16 154.208 147.16ZM154.208 146.024C154.73 146.024 155.205 145.896 155.632 145.64C156.069 145.384 156.41 145.037 156.656 144.6C156.912 144.152 157.04 143.656 157.04 143.112C157.04 142.557 156.917 142.056 156.672 141.608C156.426 141.16 156.085 140.808 155.648 140.552C155.221 140.296 154.746 140.168 154.224 140.168C153.69 140.168 153.21 140.296 152.784 140.552C152.357 140.808 152.021 141.16 151.776 141.608C151.53 142.056 151.408 142.557 151.408 143.112C151.408 143.656 151.53 144.152 151.776 144.6C152.021 145.037 152.357 145.384 152.784 145.64C153.21 145.896 153.685 146.024 154.208 146.024ZM160.469 139.208H161.701V142.312H165.525V139.208H166.757V147H165.525V143.4H161.701V147H160.469V139.208ZM172.254 139.032C173.171 139.032 173.907 139.304 174.462 139.848C175.016 140.392 175.294 141.176 175.294 142.2V147H174.142V145.992C173.854 146.376 173.486 146.669 173.038 146.872C172.59 147.075 172.083 147.176 171.518 147.176C170.718 147.176 170.062 146.979 169.55 146.584C169.048 146.189 168.798 145.656 168.798 144.984C168.798 144.323 169.054 143.795 169.566 143.4C170.078 143.005 170.755 142.808 171.598 142.808H174.062V142.136C174.062 141.496 173.891 141.011 173.55 140.68C173.219 140.339 172.76 140.168 172.174 140.168C171.704 140.168 171.288 140.275 170.926 140.488C170.563 140.691 170.222 141 169.902 141.416L169.086 140.744C169.438 140.168 169.891 139.741 170.446 139.464C171 139.176 171.603 139.032 172.254 139.032ZM171.678 146.152C172.104 146.152 172.499 146.061 172.862 145.88C173.224 145.688 173.512 145.427 173.726 145.096C173.95 144.765 174.062 144.403 174.062 144.008V143.816H171.742C171.198 143.816 170.782 143.912 170.494 144.104C170.206 144.285 170.062 144.557 170.062 144.92C170.062 145.315 170.216 145.619 170.526 145.832C170.835 146.045 171.219 146.152 171.678 146.152Z" fill="#7B7B7B"/>
<rect y="606" width="327" height="56" rx="28" fill="#313131"/>
<path d="M149.806 635.396C149.806 636.303 149.481 637.049 148.83 637.636C148.179 638.212 147.347 638.5 146.334 638.5H141.63V627.94H145.374C146.355 627.94 147.155 628.217 147.774 628.772C148.403 629.316 148.718 630.02 148.718 630.884C148.718 631.663 148.457 632.297 147.934 632.788C149.182 633.247 149.806 634.116 149.806 635.396ZM145.198 629.796H143.71V632.212H145.198C145.635 632.212 145.971 632.105 146.206 631.892C146.451 631.679 146.574 631.38 146.574 630.996C146.574 630.623 146.451 630.329 146.206 630.116C145.971 629.903 145.635 629.796 145.198 629.796ZM147.678 635.316C147.678 634.911 147.545 634.591 147.278 634.356C147.011 634.111 146.643 633.988 146.174 633.988H143.71V636.644H146.174C146.643 636.644 147.011 636.527 147.278 636.292C147.545 636.057 147.678 635.732 147.678 635.316ZM150.976 634.532C150.954 633.401 151.365 632.425 152.208 631.604C153.05 630.783 154.053 630.383 155.216 630.404C156.378 630.383 157.381 630.783 158.224 631.604C159.077 632.425 159.493 633.401 159.472 634.532C159.493 635.663 159.077 636.644 158.224 637.476C157.37 638.297 156.362 638.697 155.2 638.676C154.037 638.697 153.034 638.297 152.192 637.476C151.36 636.644 150.954 635.663 150.976 634.532ZM156.672 636.084C157.066 635.679 157.264 635.167 157.264 634.548C157.264 633.929 157.066 633.412 156.672 632.996C156.288 632.58 155.802 632.372 155.216 632.372C154.618 632.372 154.128 632.58 153.744 632.996C153.36 633.401 153.168 633.919 153.168 634.548C153.168 635.167 153.36 635.679 153.744 636.084C154.128 636.489 154.618 636.692 155.216 636.692C155.802 636.692 156.288 636.489 156.672 636.084ZM167.782 630.404H168.486V638.5H166.326V634.212L161.91 638.692H161.206V630.58H163.35V634.9L167.782 630.404ZM162.262 626.58V626.132H163.99V626.564C163.99 626.969 164.081 627.284 164.262 627.508C164.443 627.721 164.699 627.828 165.03 627.828C165.361 627.828 165.617 627.721 165.798 627.508C165.979 627.284 166.07 626.969 166.07 626.564V626.132H167.782V626.58C167.782 627.401 167.526 628.073 167.014 628.596C166.502 629.108 165.841 629.364 165.03 629.364C164.209 629.364 163.542 629.108 163.03 628.596C162.518 628.073 162.262 627.401 162.262 626.58ZM172.258 638.5V632.404H169.826V630.58H176.85V632.404H174.402V638.5H172.258ZM184.766 630.404H185.47V638.5H183.31V634.212L178.894 638.692H178.19V630.58H180.334V634.9L184.766 630.404Z" fill="#7B7B7B"/>
<rect x="0.5" y="534.5" width="326" height="55" rx="27.5" fill="#141414"/>
<rect x="0.5" y="534.5" width="326" height="55" rx="27.5" stroke="#F5F5F5"/>
<path d="M99.3488 566.5V555.94H106.389V557.892H101.509V560.084H103.733C104.789 560.084 105.642 560.377 106.293 560.964C106.954 561.54 107.285 562.303 107.285 563.252C107.285 564.212 106.954 564.996 106.293 565.604C105.631 566.201 104.778 566.5 103.733 566.5H99.3488ZM101.509 564.644H103.621C104.101 564.644 104.474 564.521 104.741 564.276C105.007 564.02 105.141 563.679 105.141 563.252C105.141 562.825 105.007 562.489 104.741 562.244C104.474 561.988 104.101 561.86 103.621 561.86H101.509V564.644ZM116.188 563.268H110.636C110.764 563.769 111.02 564.159 111.404 564.436C111.799 564.703 112.284 564.836 112.86 564.836C113.639 564.836 114.375 564.569 115.068 564.036L115.964 565.508C115.015 566.297 113.959 566.692 112.796 566.692C111.58 566.713 110.545 566.319 109.692 565.508C108.849 564.687 108.439 563.7 108.46 562.548C108.439 561.407 108.839 560.425 109.66 559.604C110.481 558.783 111.463 558.383 112.604 558.404C113.692 558.404 114.583 558.756 115.276 559.46C115.98 560.164 116.332 561.039 116.332 562.084C116.332 562.468 116.284 562.863 116.188 563.268ZM110.636 561.748H114.236C114.225 561.268 114.055 560.884 113.724 560.596C113.404 560.297 113.004 560.148 112.524 560.148C112.065 560.148 111.665 560.292 111.324 560.58C110.983 560.868 110.753 561.257 110.636 561.748ZM123.957 564.18C123.957 564.991 123.68 565.615 123.125 566.052C122.571 566.479 121.765 566.692 120.709 566.692C119.205 566.692 118.069 566.196 117.301 565.204L118.517 563.924C119.04 564.532 119.728 564.836 120.581 564.836C120.987 564.836 121.301 564.761 121.525 564.612C121.749 564.463 121.861 564.26 121.861 564.004C121.861 563.769 121.76 563.583 121.557 563.444C121.365 563.305 121.093 563.236 120.741 563.236H119.717V561.636H120.645C121.232 561.636 121.525 561.407 121.525 560.948C121.525 560.489 121.2 560.26 120.549 560.26C119.803 560.26 119.179 560.527 118.677 561.06L117.445 559.764C118.224 558.857 119.301 558.404 120.677 558.404C121.605 558.404 122.325 558.607 122.837 559.012C123.36 559.417 123.621 559.988 123.621 560.724C123.621 561.407 123.36 561.961 122.837 562.388C123.584 562.783 123.957 563.38 123.957 564.18ZM136.829 561.796V566.5H134.845V565.732C134.227 566.372 133.421 566.692 132.429 566.692C131.597 566.692 130.931 566.473 130.429 566.036C129.939 565.599 129.693 565.028 129.693 564.324C129.693 563.609 129.96 563.049 130.493 562.644C131.037 562.228 131.768 562.02 132.685 562.02H134.669V561.668C134.669 561.22 134.541 560.879 134.285 560.644C134.04 560.399 133.677 560.276 133.197 560.276C132.803 560.276 132.445 560.361 132.125 560.532C131.805 560.703 131.464 560.98 131.101 561.364L129.981 560.036C130.899 558.948 132.051 558.404 133.437 558.404C134.483 558.404 135.309 558.703 135.917 559.3C136.525 559.887 136.829 560.719 136.829 561.796ZM134.669 563.54V563.444H132.973C132.237 563.444 131.869 563.711 131.869 564.244C131.869 564.511 131.971 564.724 132.173 564.884C132.387 565.033 132.664 565.108 133.005 565.108C133.485 565.108 133.88 564.964 134.189 564.676C134.509 564.377 134.669 563.999 134.669 563.54ZM146.012 564.084C146.012 564.788 145.74 565.369 145.196 565.828C144.663 566.276 143.985 566.5 143.164 566.5H138.956V558.58H142.636C143.457 558.58 144.124 558.783 144.636 559.188C145.159 559.593 145.42 560.132 145.42 560.804C145.42 561.38 145.207 561.865 144.78 562.26C145.601 562.623 146.012 563.231 146.012 564.084ZM141.004 560.196V561.668H142.508C143.148 561.668 143.468 561.423 143.468 560.932C143.468 560.441 143.148 560.196 142.508 560.196H141.004ZM143.724 564.66C143.927 564.5 144.028 564.287 144.028 564.02C144.028 563.753 143.927 563.545 143.724 563.396C143.532 563.247 143.265 563.172 142.924 563.172H141.004V564.9H142.924C143.265 564.9 143.532 564.82 143.724 564.66ZM149.179 566.5V560.404H146.747V558.58H153.771V560.404H151.323V566.5H149.179ZM154.616 562.532C154.595 561.401 155.006 560.425 155.848 559.604C156.691 558.783 157.694 558.383 158.856 558.404C160.019 558.383 161.022 558.783 161.864 559.604C162.718 560.425 163.134 561.401 163.112 562.532C163.134 563.663 162.718 564.644 161.864 565.476C161.011 566.297 160.003 566.697 158.84 566.676C157.678 566.697 156.675 566.297 155.832 565.476C155 564.644 154.595 563.663 154.616 562.532ZM160.312 564.084C160.707 563.679 160.904 563.167 160.904 562.548C160.904 561.929 160.707 561.412 160.312 560.996C159.928 560.58 159.443 560.372 158.856 560.372C158.259 560.372 157.768 560.58 157.384 560.996C157 561.401 156.808 561.919 156.808 562.548C156.808 563.167 157 563.679 157.384 564.084C157.768 564.489 158.259 564.692 158.856 564.692C159.443 564.692 159.928 564.489 160.312 564.084ZM172.063 559.588C172.799 560.367 173.167 561.348 173.167 562.532C173.167 563.716 172.799 564.708 172.063 565.508C171.337 566.297 170.425 566.692 169.327 566.692C168.335 566.692 167.545 566.372 166.959 565.732V569.38H164.799V558.58H166.783V559.572C167.327 558.793 168.175 558.404 169.327 558.404C170.425 558.404 171.337 558.799 172.063 559.588ZM170.975 562.548C170.975 561.897 170.783 561.369 170.399 560.964C170.015 560.559 169.524 560.356 168.927 560.356C168.351 560.356 167.871 560.548 167.487 560.932C167.113 561.316 166.927 561.849 166.927 562.532C166.927 563.215 167.113 563.753 167.487 564.148C167.871 564.532 168.351 564.724 168.927 564.724C169.513 564.724 169.999 564.521 170.383 564.116C170.777 563.711 170.975 563.188 170.975 562.548ZM181.485 558.404H182.189V566.5H180.029V562.212L175.613 566.692H174.909V558.58H177.053V562.9L181.485 558.404ZM190.489 564.18C190.489 564.991 190.211 565.615 189.657 566.052C189.102 566.479 188.297 566.692 187.241 566.692C185.737 566.692 184.601 566.196 183.833 565.204L185.049 563.924C185.571 564.532 186.259 564.836 187.113 564.836C187.518 564.836 187.833 564.761 188.057 564.612C188.281 564.463 188.393 564.26 188.393 564.004C188.393 563.769 188.291 563.583 188.089 563.444C187.897 563.305 187.625 563.236 187.273 563.236H186.249V561.636H187.177C187.763 561.636 188.057 561.407 188.057 560.948C188.057 560.489 187.731 560.26 187.081 560.26C186.334 560.26 185.71 560.527 185.209 561.06L183.977 559.764C184.755 558.857 185.833 558.404 187.209 558.404C188.137 558.404 188.857 558.607 189.369 559.012C189.891 559.417 190.153 559.988 190.153 560.724C190.153 561.407 189.891 561.961 189.369 562.388C190.115 562.783 190.489 563.38 190.489 564.18ZM198.876 561.796V566.5H196.892V565.732C196.273 566.372 195.468 566.692 194.476 566.692C193.644 566.692 192.977 566.473 192.476 566.036C191.985 565.599 191.74 565.028 191.74 564.324C191.74 563.609 192.007 563.049 192.54 562.644C193.084 562.228 193.815 562.02 194.732 562.02H196.716V561.668C196.716 561.22 196.588 560.879 196.332 560.644C196.087 560.399 195.724 560.276 195.244 560.276C194.849 560.276 194.492 560.361 194.172 560.532C193.852 560.703 193.511 560.98 193.148 561.364L192.028 560.036C192.945 558.948 194.097 558.404 195.484 558.404C196.529 558.404 197.356 558.703 197.964 559.3C198.572 559.887 198.876 560.719 198.876 561.796ZM196.716 563.54V563.444H195.02C194.284 563.444 193.916 563.711 193.916 564.244C193.916 564.511 194.017 564.724 194.22 564.884C194.433 565.033 194.711 565.108 195.052 565.108C195.532 565.108 195.927 564.964 196.236 564.676C196.556 564.377 196.716 563.999 196.716 563.54ZM207.259 568.756V566.5H201.003V558.58H203.147V564.676H205.867V558.58H208.011V564.676H209.323V568.756H207.259ZM217.532 558.404H218.236V566.5H216.076V562.212L211.66 566.692H210.956V558.58H213.1V562.9L217.532 558.404ZM227.048 558.404H227.752V566.5H225.592V562.212L221.176 566.692H220.472V558.58H222.616V562.9L227.048 558.404Z" fill="#F5F5F5"/>
</svg>
